<svg xmlns="http://www.w3.org/2000/svg" xmlns:xlink="http://www.w3.org/1999/xlink" width="65" height="34" viewBox="0 0 65 34">
  <defs>
    <filter id="Ham_Menu" x="0" y="0" width="65" height="34" filterUnits="userSpaceOnUse">
      <feOffset dy="3" input="SourceAlpha"/>
      <feGaussianBlur stdDeviation="3" result="blur"/>
      <feFlood flood-opacity="0.439"/>
      <feComposite operator="in" in2="blur"/>
      <feComposite in="SourceGraphic"/>
    </filter>
    <filter id="Ham_Menu-2" x="0" y="0" width="65" height="34" filterUnits="userSpaceOnUse">
      <feOffset dy="3" input="SourceAlpha"/>
      <feGaussianBlur stdDeviation="3" result="blur-2"/>
      <feFlood flood-color="#7f8eb7" result="color"/>
      <feComposite operator="out" in="SourceGraphic" in2="blur-2"/>
      <feComposite operator="in" in="color"/>
      <feComposite operator="in" in2="SourceGraphic"/>
    </filter>
  </defs>
  <g id="组件_8_1" data-name="组件 8 – 1" transform="translate(9 6)">
    <g data-type="innerShadowGroup">
      <g transform="matrix(1, 0, 0, 1, -9, -6)" filter="url(#Ham_Menu)">
        <path id="Ham_Menu-3" data-name="Ham Menu" d="M2,0H45c1.1,0,2,1.791,2,4v8c0,2.209-.9,4-2,4H2c-1.1,0-2-1.791-2-4V4C0,1.791.9,0,2,0Z" transform="translate(9 6)" fill="#202020"/>
      </g>
      <g transform="matrix(1, 0, 0, 1, -9, -6)" filter="url(#Ham_Menu-2)">
        <path id="Ham_Menu-4" data-name="Ham Menu" d="M2,0H45c1.1,0,2,1.791,2,4v8c0,2.209-.9,4-2,4H2c-1.1,0-2-1.791-2-4V4C0,1.791.9,0,2,0Z" transform="translate(9 6)" fill="#fff"/>
      </g>
    </g>
    <text id="Sign_In" data-name="Sign In" transform="translate(11 11)" fill="#fff" font-size="8" font-family="ArialMT, Arial" opacity="0.5"><tspan x="0" y="0">Sign In</tspan></text>
  </g>
</svg>
