<svg xmlns="http://www.w3.org/2000/svg" xmlns:xlink="http://www.w3.org/1999/xlink" width="168" height="103" viewBox="0 0 168 103">
  <defs>
    <filter id="椭圆_5" x="38" y="0" width="80" height="80" filterUnits="userSpaceOnUse">
      <feOffset dy="3" input="SourceAlpha"/>
      <feGaussianBlur stdDeviation="3" result="blur"/>
      <feFlood flood-opacity="0.302"/>
      <feComposite operator="in" in2="blur"/>
      <feComposite in="SourceGraphic"/>
    </filter>
    <filter id="椭圆_5-2" x="38" y="0" width="80" height="80" filterUnits="userSpaceOnUse">
      <feOffset dy="3" input="SourceAlpha"/>
      <feGaussianBlur stdDeviation="3" result="blur-2"/>
      <feFlood flood-opacity="0.6" result="color"/>
      <feComposite operator="out" in="SourceGraphic" in2="blur-2"/>
      <feComposite operator="in" in="color"/>
      <feComposite operator="in" in2="SourceGraphic"/>
    </filter>
    <filter id="多边形_4" x="57.227" y="11" width="53" height="58" filterUnits="userSpaceOnUse">
      <feOffset dy="3" input="SourceAlpha"/>
      <feGaussianBlur stdDeviation="3" result="blur-3"/>
      <feFlood flood-opacity="0.451"/>
      <feComposite operator="in" in2="blur-3"/>
      <feComposite in="SourceGraphic"/>
    </filter>
    <filter id="多边形_4-2" x="57.227" y="11" width="53" height="58" filterUnits="userSpaceOnUse">
      <feOffset dy="3" input="SourceAlpha"/>
      <feGaussianBlur stdDeviation="3" result="blur-4"/>
      <feFlood flood-opacity="0.439" result="color-2"/>
      <feComposite operator="out" in="SourceGraphic" in2="blur-4"/>
      <feComposite operator="in" in="color-2"/>
      <feComposite operator="in" in2="SourceGraphic"/>
    </filter>
    <filter id="SuperHero_Moives" x="0" y="65" width="168" height="38" filterUnits="userSpaceOnUse">
      <feOffset dy="3" input="SourceAlpha"/>
      <feGaussianBlur stdDeviation="3" result="blur-5"/>
      <feFlood flood-opacity="0.329"/>
      <feComposite operator="in" in2="blur-5"/>
      <feComposite in="SourceGraphic"/>
    </filter>
  </defs>
  <g id="组件_5_1" data-name="组件 5 – 1" transform="translate(9 6)">
    <g data-type="innerShadowGroup">
      <g transform="matrix(1, 0, 0, 1, -9, -6)" filter="url(#椭圆_5)">
        <circle id="椭圆_5-3" data-name="椭圆 5" cx="31" cy="31" r="31" transform="translate(47 6)" fill="#d9b9c8"/>
      </g>
      <g transform="matrix(1, 0, 0, 1, -9, -6)" filter="url(#椭圆_5-2)">
        <circle id="椭圆_5-4" data-name="椭圆 5" cx="31" cy="31" r="31" transform="translate(47 6)" fill="#fff"/>
      </g>
    </g>
    <g data-type="innerShadowGroup">
      <g transform="matrix(1, 0, 0, 1, -9, -6)" filter="url(#多边形_4)">
        <path id="多边形_4-3" data-name="多边形 4" d="M18.264,3.039a2,2,0,0,1,3.473,0L38.29,32.008A2,2,0,0,1,36.554,35H3.446A2,2,0,0,1,1.71,32.008Z" transform="translate(101.23 17) rotate(90)" fill="#8b6482"/>
      </g>
      <g transform="matrix(1, 0, 0, 1, -9, -6)" filter="url(#多边形_4-2)">
        <path id="多边形_4-4" data-name="多边形 4" d="M18.264,3.039a2,2,0,0,1,3.473,0L38.29,32.008A2,2,0,0,1,36.554,35H3.446A2,2,0,0,1,1.71,32.008Z" transform="translate(101.23 17) rotate(90)" fill="#fff"/>
      </g>
    </g>
    <g transform="matrix(1, 0, 0, 1, -9, -6)" filter="url(#SuperHero_Moives)">
      <text id="SuperHero_Moives-2" data-name="SuperHero Moives" transform="translate(9 87)" fill="#fff" font-size="18" font-family="ArialMT, Arial"><tspan x="0" y="0">SuperHero Moives</tspan></text>
    </g>
  </g>
</svg>
